<svg width="1082" height="250" viewBox="0 0 1082 250" fill="none" xmlns="http://www.w3.org/2000/svg">
<path fill-rule="evenodd" clip-rule="evenodd" d="M157.978 114.741L155.074 114.744L155.084 125.611C155.089 128.609 153.36 129.702 151.1 129.747C148.843 129.702 147.649 128.248 147.644 125.276L147.642 114.752H144.765L144.773 125.282C144.781 131.127 147.609 132.792 151.108 132.792C153.082 132.792 154.433 131.933 155.092 131.144L155.089 133.787C155.036 135.779 154.389 137.783 153.197 138.414C152.07 139.002 151.227 138.851 150.911 138.841V141.969C150.911 141.969 153.066 142.235 154.954 141.162C156.775 140.111 158.001 136.93 157.995 133.578L157.978 114.741ZM46.17 114.67C44.16 114.67 42.786 115.54 42.11 116.31L42.095 107.457L39.144 107.462L39.166 132.71L42.124 132.702L42.113 122.548C42.113 119.565 43.873 117.755 46.175 117.708C48.485 117.752 49.705 119.908 49.709 122.9L49.719 132.692H52.634L52.628 122.9C52.616 117.037 49.738 114.66 46.171 114.67H46.17ZM97.511 122.72C97.933 119.382 99.733 117.37 102.441 117.37C105.814 117.37 107.143 119.944 107.457 122.72H97.511ZM102.516 114.598C97.81 114.605 94.602 118.685 94.606 124.086C94.612 129.497 97.967 132.861 102.843 132.85C105.734 132.85 107.58 131.8 109.56 129.448L109.686 129.312L107.874 127.602L107.754 127.73C106.247 129.42 104.931 130.034 102.907 130.034C99.853 130.034 97.894 128.672 97.493 125.324L110.139 125.313L110.164 125.15C110.187 124.735 110.184 124.45 110.187 124.22C110.184 118.465 107.287 114.594 102.516 114.598ZM116.435 116.769V114.781H113.474L113.492 132.626H116.448L116.442 122.412C116.439 119.419 118.852 117.804 121.145 117.751C121.465 117.765 121.786 117.797 122.08 117.859V114.676C121.769 114.633 121.455 114.614 121.141 114.619C118.991 114.611 117.436 115.362 116.435 116.769ZM28.154 118.735C24.731 117.865 22.524 117.249 22.524 114.239C22.522 111.73 24.58 110.2 27.669 110.195C29.831 110.195 31.919 111.125 33.179 112.785L35.351 110.772C34.454 109.092 31.566 107.126 27.62 107.132C23.052 107.14 19.618 110.227 19.618 114.32C19.623 119.443 23.264 120.7 26.962 121.646C30.547 122.562 33.058 123.516 33.058 126.45C33.06 129.155 31.048 129.902 27.687 129.902C24.229 129.909 22.237 127.897 21.211 126.291L19 128.369C19.762 130.504 23.386 132.972 27.725 132.972C32.758 132.957 36.01 130.789 35.999 126.325C36.007 121.331 32.199 119.741 28.154 118.735ZM138.03 107.354L138.055 132.59L140.969 132.575L140.949 107.348L138.029 107.354H138.03ZM66.12 114.846L66.125 125.618C66.132 128.62 64.758 129.721 62.463 129.765C60.155 129.728 58.791 128.62 58.785 125.635L58.775 114.849H55.835L55.848 125.774C55.854 130.662 58.327 132.904 62.463 132.896C66.6 132.889 69.063 130.649 69.06 125.767L69.05 114.835L66.12 114.845V114.846ZM90.556 129.303C89.33 128.689 88.666 127.888 88.586 125.896L88.58 117.92L92.884 117.916L92.876 114.814L88.573 114.821L88.57 107.41H85.616L85.63 114.822H83.508V117.932H85.632L85.642 125.903C85.644 129.245 86.899 131.018 88.769 132.061C90.694 133.128 92.897 132.855 92.897 132.855L92.892 129.737C92.562 129.737 91.699 129.892 90.556 129.304V129.303ZM78.92 129.311C77.695 128.689 77.025 127.897 76.943 125.908V117.941L81.244 117.931V114.824L76.936 114.831L76.934 107.421H73.992L73.997 114.831H71.874L71.882 117.946H74.005L74.008 125.908C74.017 129.262 75.268 131.026 77.129 132.074C79.054 133.149 81.261 132.874 81.261 132.874V129.747C80.929 129.747 80.065 129.9 78.92 129.311ZM134.132 114.751H129.826V114.593C129.897 112.605 130.561 111.223 131.786 110.589C132.932 110.001 133.8 110.156 134.129 110.156V107.018C134.129 107.018 131.909 106.8 129.994 107.878C128.145 108.933 126.887 111.454 126.89 114.802L126.887 114.756H124.764L124.768 117.859H126.89L126.904 132.601L129.846 132.593L129.829 117.851L134.137 117.847L134.132 114.752V114.751Z" fill="#B2B2B2"/>
<path fill-rule="evenodd" clip-rule="evenodd" d="M337.707 113H315.064C314.734 114.32 315.724 115.42 316.933 115.42H337.597C340.345 115.42 342.543 118.06 341.884 120.92C341.334 123.01 339.795 129.28 339.795 129.28C339.355 131.26 337.597 132.58 335.508 132.58H318.691C317.922 132.58 317.262 131.92 317.482 131.04C318.032 128.95 319.571 122.79 319.571 122.79C319.901 121.58 318.911 120.37 317.702 120.37C317.702 120.37 315.834 127.85 315.174 130.38C314.514 132.8 316.274 135 318.691 135H335.618C338.696 135 341.444 132.8 342.213 129.83C342.213 129.83 343.753 123.56 344.302 121.47C345.51 116.85 341.884 113 337.707 113ZM368.373 132.58C367.933 134.67 367.384 135 366.285 135H345.73C345.446 135.01 345.164 134.937 344.92 134.791C344.675 134.646 344.477 134.433 344.35 134.178C344.222 133.923 344.171 133.637 344.201 133.354C344.231 133.071 344.342 132.802 344.52 132.58H368.372H368.373ZM402.557 113C402.117 115.09 401.567 115.42 400.469 115.42H383.432C381.453 115.42 379.695 116.74 379.145 118.72C378.595 120.81 377.606 124.99 377.057 127.08C376.287 130.05 378.595 132.58 381.343 132.58H397.611C397.908 132.575 398.202 132.64 398.469 132.769C398.737 132.897 398.971 133.087 399.152 133.322C399.334 133.557 399.458 133.831 399.514 134.122C399.571 134.414 399.559 134.714 399.479 135H381.343C376.727 135 373.649 130.82 374.748 126.53C375.188 124.44 376.288 120.37 376.837 118.17C377.497 115.09 380.244 113 383.432 113H402.557ZM425.639 113H412.78C409.703 113 406.955 115.2 406.185 118.17C405.635 120.26 404.646 124.33 404.097 126.53C403.107 130.82 406.185 135 410.692 135H423.552C426.63 135 429.378 132.8 430.147 129.83C430.697 127.74 431.686 123.67 432.235 121.47C433.335 117.18 430.257 113 425.64 113H425.639ZM429.926 120.92C429.376 123.01 428.387 127.08 427.838 129.28C427.398 131.26 425.639 132.58 423.551 132.58H410.691C408.053 132.58 405.635 130.05 406.404 127.08C406.954 124.99 407.943 120.81 408.493 118.72C409.043 116.63 410.911 115.42 412.669 115.42H425.639C428.387 115.42 430.696 117.95 429.926 120.92ZM370.791 122.79L370.132 125.21H350.017L351.886 122.79H370.79H370.791ZM357.381 115.42C358.482 113.99 359.032 113 360.68 113H370.792C371.089 112.995 371.383 113.06 371.651 113.188C371.918 113.317 372.152 113.506 372.334 113.741C372.515 113.976 372.64 114.251 372.696 114.542C372.753 114.834 372.741 115.134 372.661 115.42H357.382H357.381ZM441.467 115.42C440.917 115.42 440.368 115.86 440.258 116.3C440.258 116.3 439.378 119.93 439.049 121.14C438.829 122.02 439.489 122.68 440.259 122.68H456.965C459.384 122.68 461.142 124.88 460.483 127.19C460.153 128.4 459.603 130.82 459.273 132.03C458.943 133.35 457.735 134.78 455.756 134.78H433.004C433.444 132.69 433.993 132.36 435.092 132.36H455.756C456.306 132.36 456.746 131.92 456.966 131.48C456.966 131.48 457.845 127.85 458.174 126.64C458.394 125.87 457.734 125.1 456.965 125.1H440.258C437.62 125.1 436.081 122.79 436.631 120.59C436.961 119.38 437.511 116.96 437.841 115.75C438.28 113.99 439.818 113 441.356 113H464C463.56 115.09 463.01 115.42 461.912 115.42H441.467Z" fill="#B2B2B2"/>
<path fill-rule="evenodd" clip-rule="evenodd" d="M377.987 218.43L375.333 226.985C376.143 227.302 377.043 227.483 377.987 227.483C378.931 227.483 379.831 227.303 380.595 227.031L377.987 218.431V218.43ZM347 202V245H389.77L431.595 202H347ZM398.585 228.479H395.886V236.672H383.563L382.349 232.734C381.045 233.186 379.561 233.413 377.987 233.413C376.367 233.413 374.883 233.141 373.534 232.688L372.275 236.626H364.719L365.529 234.363C365.439 234.453 365.349 234.544 365.214 234.635C363.325 236.219 360.942 237.034 358.064 237.125H357.614C354.241 237.125 350.958 236.174 348.169 234.545L350.733 229.294C353.521 230.968 355.275 231.376 357.613 231.331C358.828 231.285 359.727 231.059 360.313 230.471C360.672 230.108 360.852 229.656 360.852 229.158C360.897 227.8 359.008 227.166 356.669 226.397C354.78 225.808 352.667 224.994 351.003 223.727C349.023 222.233 348.079 220.377 348.124 217.752C348.169 215.851 348.844 214.131 350.104 212.772C351.946 210.827 354.87 209.65 358.423 209.65C361.48 209.65 365.168 210.556 367.867 211.959L364.943 217.164C362.02 215.716 360.536 215.58 358.872 215.489C356.353 215.354 355.094 216.259 355.094 217.255C355.094 218.432 357.433 219.563 359.681 220.287C363.099 221.374 367.417 222.867 368.047 227.167L374.253 210.148H381.449L388.734 230.472V210.057H397.054C405.014 210.057 408.748 212.954 408.748 219.336C408.928 225.039 405.06 228.479 398.584 228.479H398.585ZM397.73 215.669H395.886V222.549H397.73C400.159 222.549 402.137 221.735 402.137 219.064C402.137 216.529 400.159 215.669 397.73 215.669Z" fill="#B2B2B2"/>
<path fill-rule="evenodd" clip-rule="evenodd" d="M676.896 9.29C676.32 8.94411 675.708 8.66243 675.07 8.45C674.378 8.22119 673.654 8.10735 672.925 8.113C672.531 8.113 672.171 8.15 671.845 8.226C671.548 8.29089 671.263 8.40119 670.999 8.553C670.777 8.68149 670.587 8.8594 670.444 9.073C670.31 9.28214 670.24 9.52639 670.244 9.775C670.236 10.0082 670.312 10.2365 670.459 10.418C670.602 10.588 670.803 10.735 671.059 10.852C671.315 10.972 671.621 11.072 671.975 11.155C672.328 11.237 672.715 11.311 673.135 11.377L673.925 11.506C674.522 11.5973 675.11 11.7426 675.681 11.94C676.19 12.1132 676.668 12.3671 677.096 12.692C677.496 13.002 677.812 13.378 678.043 13.82C678.272 14.262 678.387 14.783 678.387 15.383C678.387 16.148 678.23 16.813 677.917 17.377C677.608 17.9353 677.175 18.4156 676.652 18.781C676.096 19.1658 675.475 19.4489 674.82 19.617C674.113 19.8032 673.386 19.8964 672.655 19.894C672.122 19.894 671.585 19.855 671.045 19.78C670.512 19.7054 669.985 19.5914 669.468 19.439C668.966 19.29 668.478 19.0996 668.008 18.87C667.563 18.6534 667.142 18.3899 666.753 18.084L668.203 15.858C668.456 16.056 668.747 16.245 669.073 16.428C669.785 16.8146 670.553 17.0866 671.349 17.234C671.773 17.311 672.211 17.351 672.664 17.351C673.051 17.351 673.413 17.315 673.75 17.242C674.087 17.17 674.379 17.062 674.626 16.916C674.855 16.7862 675.053 16.6077 675.206 16.393C675.346 16.187 675.416 15.951 675.416 15.68C675.416 15.443 675.353 15.238 675.226 15.066C675.076 14.8759 674.882 14.7249 674.661 14.626C674.363 14.487 674.051 14.381 673.73 14.31C673.305 14.21 672.876 14.1259 672.445 14.058L671.555 13.919C670.972 13.8299 670.4 13.6859 669.844 13.489C669.353 13.318 668.896 13.0618 668.494 12.732C668.115 12.4172 667.811 12.022 667.603 11.575C667.389 11.12 667.283 10.579 667.283 9.952C667.283 9.234 667.434 8.6 667.738 8.048C668.042 7.498 668.448 7.039 668.958 6.674C669.497 6.29418 670.098 6.01283 670.735 5.843C671.429 5.65244 672.145 5.55756 672.865 5.561C673.352 5.561 673.825 5.588 674.281 5.645C675.188 5.75556 676.074 5.99882 676.911 6.367C677.341 6.555 677.777 6.777 678.217 7.034L676.897 9.29H676.896ZM686.149 9.805C686.817 9.805 687.437 9.933 688.01 10.19C688.573 10.4394 689.08 10.7991 689.501 11.248C689.921 11.697 690.251 12.229 690.491 12.846C690.731 13.462 690.851 14.13 690.851 14.849C690.857 15.5329 690.737 16.212 690.496 16.852C690.275 17.4438 689.94 17.9867 689.511 18.45C689.091 18.898 688.594 19.25 688.021 19.508C687.435 19.7678 686.8 19.8994 686.159 19.894C685.506 19.894 684.947 19.779 684.484 19.553C684.034 19.3355 683.634 19.027 683.309 18.647V23.603H680.708V10.062H683.258V11.12C683.578 10.724 683.974 10.406 684.444 10.165C684.914 9.925 685.482 9.805 686.149 9.805ZM692.982 19.647H695.592V10.062H692.982V19.647ZM702.425 9.805C703.078 9.805 703.637 9.919 704.1 10.151C704.564 10.381 704.956 10.684 705.276 11.061V5.402H707.877V19.646H705.327V18.588C705.007 18.977 704.61 19.292 704.135 19.533C703.663 19.773 703.092 19.894 702.425 19.894C701.785 19.8992 701.15 19.7676 700.565 19.508C700.002 19.2586 699.495 18.8988 699.074 18.45C698.645 17.9864 698.31 17.4436 698.089 16.852C697.847 16.2121 697.727 15.5329 697.733 14.849C697.733 14.129 697.851 13.462 698.089 12.846C698.325 12.229 698.654 11.696 699.074 11.248C699.494 10.8 699.99 10.448 700.564 10.19C701.15 9.93026 701.784 9.79899 702.425 9.805ZM714.92 9.804C715.62 9.804 716.26 9.926 716.835 10.17C717.398 10.4045 717.905 10.7555 718.322 11.2C718.735 11.64 719.057 12.172 719.286 12.79C719.516 13.412 719.632 14.094 719.632 14.839C719.632 15.1297 719.616 15.4202 719.582 15.709H712.71C712.776 16.059 712.886 16.359 713.04 16.605C713.193 16.852 713.378 17.059 713.595 17.223C713.812 17.388 714.056 17.508 714.33 17.584C714.603 17.66 714.893 17.697 715.2 17.697C715.62 17.697 716.046 17.619 716.476 17.46C716.906 17.302 717.298 17.075 717.651 16.778L719.181 18.44C718.642 18.9325 718.007 19.308 717.316 19.543C716.585 19.7831 715.819 19.9016 715.05 19.894C714.31 19.894 713.631 19.773 713.015 19.533C712.42 19.3063 711.878 18.9591 711.424 18.513C710.973 18.0633 710.62 17.5246 710.388 16.931C710.141 16.315 710.018 15.631 710.018 14.878C710.018 14.126 710.138 13.439 710.378 12.817C710.602 12.2203 710.944 11.6751 711.384 11.214C711.821 10.7642 712.347 10.4104 712.929 10.175C713.561 9.92149 714.238 9.79541 714.919 9.804H714.92ZM727.024 9.804C727.304 9.804 727.556 9.822 727.78 9.858C728.002 9.894 728.205 9.946 728.385 10.012L727.995 12.574C727.754 12.4734 727.502 12.3987 727.245 12.351C726.971 12.2965 726.693 12.2683 726.414 12.267C726.114 12.267 725.838 12.313 725.589 12.406C725.347 12.4929 725.127 12.631 724.944 12.811C724.764 12.989 724.624 13.214 724.524 13.483C724.418 13.7849 724.368 14.1032 724.374 14.423V19.647H721.762V10.062H724.293V11.11C724.574 10.6772 724.971 10.3326 725.439 10.116C725.895 9.908 726.424 9.804 727.024 9.804ZM676.896 29.302C676.32 28.9561 675.708 28.6744 675.07 28.462C674.378 28.2332 673.654 28.1193 672.925 28.125C672.531 28.125 672.171 28.162 671.845 28.238C671.548 28.3029 671.263 28.4132 670.999 28.565C670.777 28.6935 670.587 28.8714 670.444 29.085C670.31 29.2941 670.24 29.5384 670.244 29.787C670.236 30.0202 670.312 30.2485 670.459 30.43C670.602 30.601 670.803 30.747 671.059 30.865C671.315 30.983 671.621 31.085 671.975 31.167C672.328 31.25 672.715 31.323 673.135 31.389L673.925 31.519C674.522 31.6103 675.11 31.7556 675.681 31.953C676.19 32.1262 676.668 32.3801 677.096 32.705C677.496 33.015 677.812 33.39 678.043 33.832C678.272 34.274 678.387 34.795 678.387 35.395C678.387 36.161 678.23 36.825 677.917 37.389C677.608 37.9473 677.175 38.4276 676.652 38.793C676.096 39.1778 675.475 39.4609 674.82 39.629C674.113 39.8152 673.386 39.9084 672.655 39.906C672.122 39.906 671.585 39.868 671.045 39.792C670.512 39.7174 669.985 39.6034 669.468 39.451C668.966 39.302 668.478 39.1116 668.008 38.882C667.563 38.6654 667.142 38.4019 666.753 38.096L668.203 35.87C668.456 36.068 668.747 36.258 669.073 36.44C669.785 36.8266 670.553 37.0986 671.349 37.246C671.773 37.324 672.211 37.363 672.664 37.363C673.051 37.363 673.413 37.327 673.75 37.255C674.087 37.182 674.379 37.074 674.626 36.929C674.855 36.7989 675.053 36.62 675.206 36.405C675.346 36.199 675.416 35.963 675.416 35.693C675.416 35.455 675.353 35.25 675.226 35.079C675.076 34.8889 674.882 34.7379 674.661 34.639C674.363 34.4997 674.051 34.3933 673.73 34.322C673.305 34.222 672.876 34.1379 672.445 34.07L671.555 33.932C670.972 33.8426 670.399 33.6983 669.844 33.501C669.353 33.33 668.896 33.0738 668.494 32.744C668.115 32.4292 667.811 32.034 667.603 31.587C667.389 31.133 667.283 30.591 667.283 29.965C667.283 29.246 667.434 28.612 667.738 28.061C668.036 27.5164 668.453 27.0463 668.958 26.686C669.497 26.3065 670.098 26.0255 670.735 25.856C671.429 25.6651 672.145 25.5699 672.865 25.573C673.352 25.573 673.825 25.601 674.281 25.657C675.188 25.7676 676.074 26.0108 676.911 26.379C677.341 26.567 677.777 26.789 678.217 27.047L676.897 29.302H676.896ZM687.551 32.368H684.04V35.87C684.04 36.167 684.078 36.42 684.155 36.627C684.231 36.835 684.335 37.003 684.465 37.131C684.594 37.261 684.748 37.354 684.925 37.413C685.102 37.473 685.29 37.503 685.49 37.503C685.803 37.503 686.118 37.439 686.435 37.309C686.752 37.181 687.043 37.038 687.311 36.879L688.271 38.897C687.844 39.187 687.374 39.427 686.861 39.619C686.347 39.81 685.746 39.906 685.06 39.906C683.852 39.906 682.946 39.579 682.339 38.926C681.732 38.274 681.429 37.324 681.429 36.078V32.368H679.557V30.074H681.428V27.226H684.04V30.074H687.55V32.368H687.551ZM695.113 29.817C695.393 29.817 695.645 29.834 695.869 29.87C696.091 29.907 696.294 29.958 696.474 30.025L696.084 32.586C695.843 32.4854 695.591 32.4107 695.334 32.363C695.06 32.3088 694.782 32.281 694.503 32.28C694.203 32.28 693.927 32.325 693.678 32.418C693.436 32.5052 693.216 32.6437 693.033 32.824C692.853 33.001 692.713 33.226 692.613 33.496C692.512 33.766 692.463 34.079 692.463 34.436V39.659H689.85V30.074H692.381V31.123C692.661 30.6899 693.059 30.3449 693.527 30.128C693.983 29.92 694.512 29.817 695.112 29.817H695.113ZM707.468 39.659H704.918V38.6C704.591 38.9948 704.185 39.3167 703.726 39.545C703.253 39.785 702.683 39.906 702.016 39.906C701.376 39.9115 700.742 39.7802 700.156 39.521C699.593 39.2713 699.086 38.9112 698.665 38.462C698.236 37.9988 697.901 37.4563 697.679 36.865C697.438 36.2247 697.317 35.5452 697.324 34.861C697.324 34.142 697.442 33.474 697.679 32.859C697.916 32.241 698.245 31.709 698.665 31.26C699.085 30.812 699.581 30.46 700.155 30.203C700.741 29.9429 701.375 29.8113 702.016 29.817C702.683 29.817 703.253 29.937 703.726 30.177C704.2 30.418 704.597 30.737 704.918 31.132V30.074H707.468V39.659ZM717.242 32.369H713.731V35.869C713.731 36.167 713.769 36.419 713.846 36.627C713.922 36.835 714.026 37.003 714.156 37.131C714.286 37.261 714.439 37.354 714.616 37.413C714.793 37.473 714.981 37.503 715.181 37.503C715.495 37.503 715.81 37.439 716.127 37.309C716.443 37.181 716.735 37.038 717.002 36.879L717.962 38.897C717.535 39.187 717.065 39.427 716.552 39.619C716.038 39.81 715.438 39.906 714.752 39.906C713.543 39.906 712.637 39.579 712.03 38.926C711.423 38.274 711.12 37.324 711.12 36.078V32.368H709.249V30.074H711.119V27.226H713.731V30.074H717.242V32.368V32.369ZM723.724 29.816C724.424 29.816 725.064 29.938 725.639 30.183C726.202 30.4172 726.709 30.7679 727.126 31.212C727.539 31.652 727.861 32.184 728.09 32.803C728.321 33.423 728.436 34.106 728.436 34.851C728.436 35.1417 728.42 35.4322 728.386 35.721H721.514C721.58 36.071 721.69 36.371 721.844 36.617C721.997 36.865 722.183 37.071 722.399 37.235C722.616 37.4 722.86 37.521 723.134 37.596C723.407 37.672 723.698 37.709 724.005 37.709C724.425 37.709 724.85 37.631 725.28 37.473C725.71 37.314 726.102 37.087 726.455 36.791L727.985 38.452C727.446 38.9443 726.812 39.3199 726.121 39.555C725.39 39.7952 724.624 39.9137 723.854 39.906C723.114 39.906 722.435 39.786 721.819 39.546C721.224 39.3193 720.682 38.9721 720.228 38.526C719.776 38.0761 719.424 37.5369 719.192 36.943C718.945 36.327 718.822 35.643 718.822 34.891C718.822 34.139 718.942 33.451 719.182 32.829C719.406 32.2323 719.748 31.6871 720.188 31.226C720.618 30.781 721.133 30.436 721.734 30.188C722.366 29.9341 723.043 29.8077 723.724 29.816ZM734.429 29.816C735.109 29.816 735.695 29.935 736.189 30.173C736.682 30.411 737.095 30.734 737.429 31.143V30.073H739.989V38.868C739.989 39.639 739.868 40.33 739.624 40.94C739.395 41.5295 739.036 42.06 738.574 42.492C738.098 42.9287 737.536 43.2609 736.924 43.467C736.28 43.691 735.559 43.803 734.758 43.803C733.987 43.8023 733.219 43.7042 732.472 43.511C732.115 43.418 731.765 43.2976 731.426 43.151C731.107 43.0133 730.802 42.8442 730.516 42.646L731.446 40.539C731.934 40.855 732.442 41.098 732.973 41.266C733.503 41.435 734.061 41.518 734.647 41.518C735.054 41.518 735.427 41.464 735.764 41.355C736.099 41.247 736.39 41.085 736.634 40.87C736.878 40.657 737.067 40.39 737.204 40.074C737.347 39.7263 737.417 39.3529 737.409 38.977V38.304C737.073 38.708 736.651 39.0325 736.174 39.254C735.683 39.484 735.102 39.6 734.429 39.6C733.845 39.6022 733.267 39.4827 732.732 39.249C732.198 39.0161 731.715 38.6796 731.312 38.259C730.889 37.8127 730.556 37.2887 730.332 36.716C730.082 36.0782 729.958 35.398 729.966 34.713C729.966 33.974 730.088 33.305 730.331 32.705C730.575 32.105 730.901 31.59 731.311 31.162C731.714 30.7393 732.197 30.4013 732.732 30.168C733.267 29.9338 733.845 29.8143 734.429 29.817V29.816ZM742.732 39.658H745.342V30.074H742.732V39.658ZM744.022 25.276C744.254 25.276 744.473 25.319 744.676 25.405C744.875 25.4854 745.056 25.6046 745.208 25.7557C745.36 25.9068 745.48 26.0868 745.562 26.285C745.649 26.49 745.692 26.708 745.692 26.938C745.693 27.1558 745.651 27.3717 745.568 27.573C745.485 27.7742 745.362 27.9568 745.207 28.11C745.057 28.258 744.88 28.374 744.676 28.457C744.468 28.5398 744.246 28.5815 744.022 28.58C743.797 28.5817 743.575 28.5399 743.366 28.457C743.168 28.3786 742.989 28.2612 742.837 28.1117C742.686 27.9622 742.567 27.7837 742.486 27.587C742.402 27.3811 742.359 27.1605 742.361 26.938C742.361 26.708 742.402 26.49 742.486 26.286C742.569 26.08 742.686 25.904 742.836 25.756C743.152 25.4457 743.579 25.2732 744.022 25.276ZM752.384 29.816C753.084 29.816 753.724 29.938 754.299 30.183C754.862 30.4172 755.369 30.7679 755.786 31.212C756.199 31.652 756.521 32.184 756.75 32.803C756.981 33.423 757.096 34.106 757.096 34.851C757.096 35.1417 757.08 35.4322 757.046 35.721H750.174C750.24 36.071 750.35 36.371 750.504 36.617C750.657 36.865 750.842 37.071 751.059 37.235C751.276 37.4 751.52 37.521 751.794 37.596C752.067 37.672 752.358 37.709 752.665 37.709C753.085 37.709 753.51 37.631 753.94 37.473C754.37 37.314 754.762 37.087 755.115 36.791L756.645 38.452C756.106 38.9445 755.471 39.32 754.78 39.555C754.049 39.7951 753.283 39.9136 752.514 39.906C751.774 39.906 751.095 39.786 750.479 39.546C749.884 39.3193 749.342 38.9721 748.888 38.526C748.436 38.0761 748.084 37.5369 747.852 36.943C747.605 36.327 747.482 35.643 747.482 34.891C747.482 34.139 747.602 33.451 747.842 32.829C748.066 32.2323 748.408 31.6871 748.848 31.226C749.278 30.781 749.793 30.436 750.394 30.188C751.026 29.9341 751.703 29.8077 752.384 29.816ZM766.109 32.744C765.65 32.5275 765.172 32.3505 764.683 32.215C764.41 32.1385 764.133 32.0774 763.853 32.032C763.577 31.9866 763.298 31.9632 763.018 31.962C762.518 31.962 762.144 32.042 761.898 32.2C761.651 32.359 761.528 32.57 761.528 32.834C761.524 32.961 761.569 33.0847 761.653 33.18C761.746 33.2796 761.861 33.3571 761.988 33.407C762.128 33.466 762.294 33.515 762.488 33.551C762.682 33.587 762.888 33.621 763.108 33.655L763.968 33.783C765.022 33.942 765.831 34.255 766.394 34.723C766.958 35.191 767.24 35.833 767.24 36.652C767.24 37.147 767.14 37.595 766.94 37.996C766.736 38.4022 766.437 38.7533 766.069 39.02C765.689 39.3 765.222 39.519 764.669 39.674C764.056 39.836 763.423 39.914 762.789 39.906C762.454 39.906 762.103 39.888 761.732 39.852C761.355 39.8139 760.981 39.7528 760.612 39.669C760.232 39.582 759.859 39.4664 759.497 39.323C759.137 39.1814 758.795 38.9985 758.477 38.778L759.507 36.82C759.713 36.958 759.934 37.084 760.167 37.196C760.681 37.441 761.229 37.6075 761.793 37.69C762.103 37.737 762.441 37.76 762.808 37.76C763.415 37.76 763.865 37.68 764.158 37.522C764.452 37.363 764.598 37.143 764.598 36.86C764.598 36.628 764.472 36.444 764.218 36.306C763.964 36.166 763.555 36.059 762.988 35.98L762.198 35.87C759.963 35.567 758.847 34.598 758.847 32.962C758.847 32.467 758.94 32.027 759.127 31.642C759.314 31.255 759.583 30.928 759.937 30.657C760.29 30.387 760.719 30.181 761.223 30.039C761.782 29.8897 762.359 29.818 762.938 29.826C763.324 29.826 763.694 29.845 764.044 29.881C764.722 29.9539 765.39 30.1046 766.034 30.33C766.351 30.444 766.669 30.578 766.989 30.737L766.109 32.744ZM633.863 0L624.071 5.68V16.235L642.976 5.205L633.863 0ZM622.335 6.638L613 11.91V28.54L622.335 23.263V6.638ZM650.103 9.272L613 30.455V35.737L617.627 38.377L654.731 17.196V11.913L650.103 9.273V9.272ZM633.867 47.65L643.66 41.972V31.417L624.754 42.446L633.867 47.65ZM645.397 41.015L654.731 35.739V19.107L645.398 24.387V41.015H645.397ZM735.089 32.191C734.715 32.191 734.379 32.257 734.078 32.388C733.787 32.5138 733.525 32.6975 733.308 32.928C733.092 33.1588 732.926 33.431 732.818 33.728C732.704 34.035 732.648 34.363 732.648 34.713C732.648 35.063 732.704 35.389 732.818 35.693C732.926 35.9897 733.093 36.2613 733.31 36.4909C733.527 36.7204 733.788 36.9032 734.078 37.028C734.397 37.1633 734.741 37.2308 735.088 37.226C735.448 37.226 735.779 37.161 736.078 37.033C736.369 36.911 736.632 36.7303 736.849 36.5021C737.067 36.2739 737.236 36.0032 737.344 35.707C737.46 35.401 737.519 35.069 737.519 34.713C737.522 34.3721 737.462 34.0336 737.344 33.714C737.235 33.4161 737.067 33.1435 736.849 32.913C736.635 32.689 736.379 32.513 736.079 32.383C735.766 32.2518 735.429 32.1864 735.089 32.191ZM702.496 32.221C702.116 32.221 701.771 32.289 701.461 32.428C701.16 32.5594 700.89 32.7522 700.668 32.9939C700.446 33.2357 700.277 33.5211 700.171 33.832C700.053 34.1624 699.993 34.511 699.995 34.862C699.995 35.23 700.054 35.574 700.17 35.894C700.286 36.214 700.454 36.494 700.67 36.731C700.887 36.968 701.15 37.156 701.46 37.294C701.77 37.433 702.116 37.502 702.496 37.502C702.869 37.502 703.21 37.436 703.516 37.304C703.823 37.173 704.086 36.988 704.306 36.751C704.526 36.513 704.697 36.233 704.817 35.91C704.937 35.587 704.997 35.237 704.997 34.861C704.997 34.485 704.937 34.135 704.817 33.813C704.704 33.5022 704.531 33.2167 704.307 32.973C704.086 32.7342 703.816 32.5448 703.517 32.417C703.194 32.2825 702.847 32.2155 702.497 32.22L702.496 32.221ZM723.704 32.041C723.084 32.041 722.594 32.212 722.234 32.551C721.874 32.891 721.637 33.361 721.524 33.961H725.816C725.696 33.341 725.456 32.866 725.096 32.537C724.735 32.207 724.271 32.042 723.704 32.042V32.041ZM752.364 32.041C751.744 32.041 751.254 32.212 750.894 32.551C750.534 32.891 750.297 33.361 750.184 33.961H754.476C754.356 33.341 754.116 32.866 753.756 32.537C753.395 32.207 752.931 32.042 752.364 32.042V32.041ZM702.906 12.209C702.526 12.209 702.18 12.279 701.87 12.416C701.569 12.5475 701.299 12.7404 701.077 12.9824C700.855 13.2243 700.685 13.5099 700.58 13.821C700.462 14.1511 700.402 14.4994 700.404 14.85C700.404 15.219 700.463 15.563 700.58 15.883C700.696 16.203 700.863 16.482 701.08 16.719C701.296 16.957 701.56 17.145 701.87 17.283C702.18 17.422 702.526 17.491 702.906 17.491C703.279 17.491 703.619 17.425 703.926 17.293C704.232 17.162 704.496 16.976 704.716 16.74C704.936 16.502 705.106 16.222 705.226 15.898C705.346 15.576 705.406 15.226 705.406 14.85C705.406 14.474 705.346 14.124 705.226 13.802C705.113 13.4912 704.94 13.2057 704.716 12.962C704.495 12.7232 704.225 12.5338 703.926 12.406C703.603 12.2715 703.256 12.2045 702.906 12.209ZM694.273 5.265C694.601 5.26266 694.922 5.3573 695.196 5.53702C695.47 5.71674 695.685 5.97351 695.813 6.275C695.9 6.479 695.943 6.696 695.943 6.927C695.944 7.14477 695.902 7.36056 695.818 7.56179C695.735 7.76301 695.613 7.94563 695.458 8.099C695.308 8.247 695.131 8.363 694.927 8.445C694.719 8.52852 694.497 8.57065 694.273 8.569C694.039 8.569 693.82 8.528 693.617 8.445C693.419 8.36636 693.24 8.24882 693.089 8.09937C692.937 7.94991 692.818 7.77159 692.737 7.575C692.652 7.3695 692.61 7.14922 692.611 6.927C692.611 6.696 692.653 6.479 692.737 6.274C692.816 6.07529 692.935 5.89481 693.087 5.74352C693.238 5.59224 693.418 5.47332 693.617 5.394C693.82 5.307 694.039 5.265 694.273 5.265ZM685.67 12.209C685.321 12.204 684.975 12.271 684.654 12.406C684.356 12.534 684.089 12.7231 683.869 12.961C683.649 13.199 683.479 13.479 683.359 13.801C683.237 14.1371 683.176 14.4924 683.179 14.85C683.179 15.226 683.239 15.576 683.359 15.898C683.479 16.222 683.649 16.502 683.869 16.74C684.089 16.976 684.35 17.162 684.654 17.293C684.958 17.425 685.297 17.491 685.67 17.491C686.028 17.4968 686.382 17.4259 686.71 17.283C687.009 17.151 687.278 16.9585 687.499 16.7176C687.72 16.4766 687.889 16.1924 687.995 15.883C688.112 15.563 688.171 15.219 688.171 14.85C688.171 14.487 688.112 14.144 687.995 13.82C687.885 13.5097 687.716 13.2242 687.495 12.98C687.275 12.7403 687.007 12.5484 686.71 12.416C686.382 12.2738 686.027 12.2032 685.67 12.209ZM714.9 12.031C714.28 12.031 713.79 12.201 713.43 12.541C713.07 12.881 712.832 13.349 712.72 13.95H717.011C716.891 13.33 716.651 12.855 716.291 12.526C715.931 12.196 715.466 12.031 714.901 12.031H714.9Z" fill="#B2B2B2"/>
<path fill-rule="evenodd" clip-rule="evenodd" d="M667.038 111C668.646 111 670 109.696 670 107.979C670.001 107.589 669.926 107.202 669.777 106.842C669.629 106.481 669.411 106.153 669.136 105.876C668.861 105.599 668.534 105.38 668.174 105.229C667.814 105.079 667.428 105.001 667.038 105C665.383 105 664 106.306 664 107.979C664 109.696 665.383 111 667.038 111ZM668.498 124.614V115H664V124.614C664 129.797 668.035 134 673 134V129.316C670.519 129.316 668.497 127.204 668.497 124.614H668.498ZM689.388 116.416C688.005 115.583 686.46 115 684.672 115H684.626C682.059 115 679.642 116.028 677.828 117.768C676.934 118.63 676.224 119.663 675.738 120.805C675.252 121.948 675.001 123.176 675 124.418V124.791C675 129.948 679.277 134.131 684.61 134.131C686.288 134.131 687.937 133.687 689.388 132.844V144H694V115.268H689.388V116.416ZM736.649 123.094L733.715 122.158C732.696 121.811 731.88 121.262 731.925 120.528C732.011 119.151 733.155 118.795 734.293 118.868C735.153 118.923 736.163 119.338 736.49 120.244L740.427 118.301C739.321 116.16 736.876 115.173 734.421 115.016C730.861 114.788 727.682 117.081 727.501 119.998C727.369 122.138 727.655 124.309 732.215 125.885L734.629 126.675C735.901 127.067 736.568 127.581 736.468 128.512C736.403 129.565 735.325 130.242 734.021 130.199C732.49 130.165 731.23 129.234 730.933 128.129L727 130.06C728.068 132.407 730.68 133.807 733.326 133.977C737.034 134.215 740.76 132.54 740.989 128.847C741.079 127.397 740.725 124.447 736.649 123.093V123.094ZM649.953 106H648.222C645.757 106 643.444 107.072 641.696 108.853C639.96 110.611 639 112.921 639 115.563H643.61C643.61 114.196 644.096 113.16 644.974 112.269C645.397 111.837 645.903 111.495 646.461 111.263C647.019 111.031 647.618 110.914 648.222 110.918H649.878V124.634C649.878 129.806 653.914 134 659.206 134V129.326C656.426 129.326 654.362 127.218 654.362 124.634V110.918H661V106H649.953ZM703.981 115C699.305 115 695 118.722 695 124.43C695 130.467 699.417 134 704.427 134C708.112 134 710.72 132.264 712.051 129.932L708.149 128.076C707.445 129.151 706.279 129.85 704.464 129.85C702.014 129.85 699.974 127.986 699.862 125.767H712.926C712.926 125.767 713 124.978 713 124.287C713 118.543 709.623 115 703.981 115ZM717.431 124.591C717.431 129.228 721.254 133 725.957 133V128.524C723.764 128.524 721.967 126.774 721.967 124.591H721.963V118.766H726V114.913H721.963V109H717.43V114.913H714V118.766H717.43V124.591H717.431ZM689.465 124.791C689.465 126.035 688.903 127.211 687.988 128.081C687.088 128.976 685.988 129.459 684.7 129.459C682.034 129.459 679.98 127.369 679.98 124.791V124.418C679.98 123.179 680.417 122.002 681.329 121.126C682.223 120.244 683.427 119.745 684.683 119.736C687.333 119.746 689.446 121.782 689.446 124.369L689.466 124.791H689.465ZM699.974 122.482C700.084 120.707 701.495 118.955 704.056 118.955C706.876 118.955 708.064 120.707 708.138 122.482H699.974Z" fill="#B2B2B2"/>
<path fill-rule="evenodd" clip-rule="evenodd" d="M750.545 216.242C750.404 216.123 750.254 216.038 750.115 216.032C749.295 216.003 748.473 215.994 747.652 216.007C746.817 216.015 745.959 216.032 745.066 216.032C745.122 216.119 745.173 216.202 745.221 216.279C745.451 216.646 745.613 216.915 745.793 217.171C747.224 219.213 748.626 221.277 750.116 223.276C750.533 223.836 750.58 224.252 750.334 224.732C750.262 224.869 750.178 225.001 750.084 225.124C749.642 225.716 749.209 226.314 748.78 226.914C747.944 228.086 747.125 229.269 746.295 230.444C745.872 231.042 745.455 231.644 744.892 232.449C745.702 232.449 746.432 232.433 747.122 232.429C747.694 232.423 748.266 232.436 748.836 232.468C749.239 232.493 749.562 232.438 749.835 232.298C750.152 232.138 750.402 231.861 750.631 231.461C750.893 231.005 751.166 230.557 751.45 230.106C752.004 229.224 752.596 228.336 753.208 227.374C754.248 228.936 755.13 230.291 756.047 231.624C756.258 231.93 756.572 232.377 756.857 232.39C757.683 232.424 758.51 232.439 759.336 232.436C760.183 232.436 761.062 232.426 762 232.426C760.13 229.766 758.446 227.334 756.713 224.936C756.484 224.62 756.371 224.358 756.39 224.087C756.405 223.87 756.504 223.647 756.696 223.386C757.572 222.188 758.435 220.981 759.285 219.764L760.073 218.639L761.159 217.089C761.273 216.927 761.381 216.76 761.501 216.571C761.602 216.411 761.713 216.234 761.845 216.029C760.299 216.029 758.991 216.074 757.688 216.011C757.395 215.997 757.162 216.038 756.964 216.131C756.686 216.262 756.479 216.498 756.282 216.831C755.918 217.443 755.544 218.05 755.161 218.651C754.698 219.381 754.21 220.137 753.688 220.962C753.511 220.692 753.34 220.425 753.173 220.162C752.54 219.168 751.967 218.23 751.372 217.326C751.236 217.119 751.099 216.914 750.959 216.71C750.842 216.537 750.703 216.38 750.545 216.242ZM692.383 227.628C691.996 227.729 691.655 227.946 691.326 228.363L691.28 228.42C690.362 229.501 688.21 229.732 686.81 229.062C686.473 228.9 686.166 228.682 685.901 228.417C685.485 227.996 685.173 227.484 684.991 226.92C684.809 226.357 684.762 225.759 684.853 225.174H696.847C697.046 221.911 696.531 219.031 693.731 217.094C688.099 213.197 680.336 216.63 679.634 223.387C679.414 225.502 679.712 227.471 680.6 229.058C681.506 230.678 683.026 231.898 685.238 232.472C687.306 233.009 689.398 233.046 691.458 232.47C692.516 232.174 693.468 231.756 694.278 231.155C695.372 230.342 696.203 229.195 696.676 227.562C695.822 227.562 695.068 227.574 694.347 227.572C693.977 227.571 693.617 227.565 693.255 227.553C692.963 227.535 692.669 227.561 692.383 227.628ZM651.632 209.434C655.022 213.058 657.113 217.924 657.064 223.26C656.963 234.18 648.105 243.013 637.106 242.999C626.113 243.122 616.94 233.869 617 222.832C617.038 215.962 620.57 209.987 625.815 206.438C629.12 204.193 633.025 202.995 637.02 203C642.708 203.013 647.941 205.488 651.633 209.434H651.632ZM667.949 216.086V232.344H672.727C672.727 231.77 672.723 231.302 672.727 230.834C672.747 228.538 672.68 226.238 672.809 223.949C672.985 220.822 675.017 219.457 678.012 220.313C678.12 220.343 678.235 220.35 678.422 220.38C678.618 219.44 678.819 218.52 679.001 217.597C679.294 216.101 679.171 215.924 677.66 215.711C677.308 215.669 676.952 215.659 676.597 215.682C674.819 215.764 673.645 216.802 672.604 218.489L672.469 216.086H667.949ZM738.092 232.334H742.86V216.086H738.092V232.334ZM729.916 231.65C730.142 231.974 730.53 232.388 730.86 232.404C732.505 232.481 734.156 232.439 736.073 232.439L729.361 222.593L735.504 216.029C734.388 216.029 733.59 216.129 732.825 216.009C730.734 215.683 729.242 216.423 728 218.135C726.954 219.577 725.633 220.818 724.433 222.149L724.162 222.025V207.849H719.312V232.369H724.132C724.382 230.155 723.405 227.58 726.248 226.237C727.442 228.008 728.658 229.844 729.916 231.65ZM712.118 232.349V230.344C711.288 231.006 710.618 231.742 709.788 232.171C706.258 233.998 701.625 232.401 700.019 228.775C698.705 225.806 698.735 222.753 700.105 219.806C701.599 216.591 705.249 214.881 708.653 215.896C709.87 216.259 710.917 217.188 711.973 217.818V207.85L716.208 207.828V232.328L712.118 232.348V232.349ZM737.899 212.05H742.945V207.846H737.899V212.051V212.05ZM648.212 229.79C649.103 230.026 650.059 230.022 651.166 230.142C650.907 230.643 650.734 231.066 650.488 231.444C646.838 237.05 640.748 239.524 635.035 238.772C627.943 237.839 622.868 232.732 621.453 226.27C619.533 217.502 625.552 208.893 634.68 207.32C644.009 205.712 652.993 213.252 652.951 222.654C652.943 224.606 651.832 225.853 650.083 225.874C648.356 225.894 647.186 224.671 647.08 222.734C646.807 217.734 643.632 214.091 638.67 213.08C633.023 211.93 627.2 216.639 626.97 222.387C626.78 227.135 629.693 231.037 633.604 232.48C637.734 234.003 642.101 232.706 645.077 229.07C645.202 228.918 645.311 228.753 645.407 228.62C646.467 229.075 647.308 229.551 648.212 229.79ZM636.952 228.88C633.758 228.852 631.105 226.117 631.157 222.905C631.208 219.714 633.938 217.073 637.15 217.108C640.34 217.143 642.982 219.87 642.943 223.091C642.904 226.279 640.185 228.907 636.953 228.879L636.952 228.88ZM703.819 227.232C704.346 228.508 705.423 229.184 706.799 229.254C708.167 229.323 709.254 228.749 710.006 227.583C711.186 225.753 711.153 222.58 709.93 220.806C708.482 218.704 705.457 218.682 704.17 220.878C703.573 221.896 703.365 223.143 703.005 224.217C703.3 225.348 703.449 226.336 703.819 227.232ZM684.948 222.3C684.991 220.267 686.474 218.949 688.593 219.004C690.537 219.054 691.694 220.28 691.633 222.3H684.948Z" fill="#B2B2B2"/>
<path fill-rule="evenodd" clip-rule="evenodd" d="M899.1 25.8C899.1 32.6 904.569 38.2 911.43 38.2C915.307 38.2 918.688 36.4 920.975 33.6C921.87 34.7 923.461 36.9 923.759 37.5C923.759 37.5 925.549 34.8 926.543 33.6C928.83 36.4 932.211 38.2 936.089 38.2C942.85 38.2 948.419 32.7 948.419 25.8C948.419 23.1 947.524 20.6 946.032 18.5C946.231 17.1 947.225 15.1 948.518 13.6H940.265C936.089 10.8 930.322 9 923.759 9C917.197 9 911.032 10.8 906.856 13.6H899C900.293 15.1 901.188 17.1 901.486 18.5C899.995 20.6 899.1 23.1 899.1 25.8ZM946.032 25.8C946.032 31.3 941.558 35.8 936.089 35.8C930.62 35.8 926.146 31.3 926.146 25.8C926.146 20.3 930.62 15.8 936.089 15.8C941.558 15.9 946.032 20.3 946.032 25.8ZM923.759 11.1C928.134 11.1 932.211 11.9 935.691 13.5C929.029 13.7 923.759 19.2 923.759 25.9C923.759 19.1 918.29 13.5 911.429 13.5C915.009 11.9 919.384 11.1 923.759 11.1ZM911.429 15.9C916.899 15.9 921.373 20.4 921.373 25.9C921.373 31.4 916.898 35.9 911.429 35.9C905.961 35.9 901.486 31.4 901.486 25.9C901.586 20.3 905.961 15.9 911.429 15.9ZM936.089 31.8C939.37 31.8 942.055 29.1 942.055 25.8C942.055 22.5 939.37 19.8 936.089 19.8C932.808 19.8 930.123 22.5 930.123 25.8C930.123 29.1 932.808 31.8 936.089 31.8ZM911.33 31.8C914.611 31.8 917.296 29.1 917.296 25.8C917.296 22.5 914.611 19.8 911.33 19.8C908.049 19.8 905.364 22.5 905.364 25.8C905.364 29.1 908.049 31.8 911.33 31.8ZM911.33 21.6C913.617 21.6 915.506 23.5 915.506 25.8C915.506 28.1 913.617 30 911.33 30C909.043 30 907.154 28.1 907.154 25.8C907.154 23.5 909.043 21.6 911.33 21.6ZM936.089 21.6C938.376 21.6 940.265 23.5 940.265 25.8C940.265 28.1 938.375 30 936.089 30C933.802 30 931.913 28.1 931.913 25.8C931.913 23.5 933.802 21.6 936.089 21.6ZM911.032 27.8C911.562 27.8 912.071 27.5893 912.446 27.2142C912.821 26.8391 913.032 26.3304 913.032 25.8C913.032 25.2696 912.821 24.7609 912.446 24.3858C912.071 24.0107 911.562 23.8 911.032 23.8C910.502 23.8 909.993 24.0107 909.618 24.3858C909.243 24.7609 909.032 25.2696 909.032 25.8C909.032 26.3304 909.243 26.8391 909.618 27.2142C909.993 27.5893 910.502 27.8 911.032 27.8ZM935.791 27.8C936.321 27.8 936.83 27.5893 937.205 27.2142C937.58 26.8391 937.791 26.3304 937.791 25.8C937.791 25.2696 937.58 24.7609 937.205 24.3858C936.83 24.0107 936.321 23.8 935.791 23.8C935.261 23.8 934.752 24.0107 934.377 24.3858C934.002 24.7609 933.791 25.2696 933.791 25.8C933.791 26.3304 934.002 26.8391 934.377 27.2142C934.752 27.5893 935.261 27.8 935.791 27.8ZM970.751 15.941L968.118 16.725V19.078H966.104V21.275H968.118V28.02C968.118 31 969.357 32.569 971.835 32.569C972.765 32.569 973.384 32.412 974.004 32.255L973.849 30.215H973.694C973.384 30.373 972.919 30.373 972.3 30.373C971.68 30.373 971.215 30.216 971.06 29.745C970.75 29.431 970.596 28.804 970.596 27.863V21.118H974.004V18.922H970.596V15.942H970.751V15.941ZM982.522 18.765C981.747 18.765 980.972 19.078 980.198 19.549C979.578 20.019 979.114 20.49 978.804 21.275L978.649 19.078H976.326V19.235C976.326 20.333 976.481 21.745 976.481 23.314V32.254H979.114V25.196C979.114 23.941 979.424 23 980.044 22.216C980.664 21.588 981.438 21.118 982.212 21.118H983.141V18.45H982.986C982.986 18.764 982.676 18.764 982.522 18.764V18.765ZM985.62 19.078H988.253V32.255H985.62V19.078ZM987.014 13.588C986.549 13.588 986.084 13.745 985.774 14.058C985.464 14.373 985.31 14.843 985.31 15.314C985.31 15.784 985.465 16.254 985.775 16.569C986.085 16.882 986.549 17.039 987.014 17.039C987.478 17.039 987.944 16.882 988.253 16.569C988.563 16.255 988.718 15.784 988.718 15.314C988.718 14.844 988.563 14.373 988.253 14.059C987.943 13.745 987.478 13.589 987.013 13.589L987.014 13.588ZM997.547 18.765C995.687 18.765 994.139 19.549 993.055 20.961L992.9 18.921H990.422V19.078C990.422 20.176 990.577 21.588 990.577 23.314V37.588H993.211V30.843C993.521 31.313 993.985 31.784 994.605 32.098C995.379 32.412 996.154 32.725 996.928 32.725C998.632 32.725 1000.03 32.098 1001.11 30.686C1002.19 29.431 1002.81 27.549 1002.81 25.51C1002.81 23.627 1002.35 21.902 1001.27 20.647C1000.49 19.392 999.097 18.765 997.548 18.765H997.547ZM1014.9 29.118V24.412C1014.9 22.686 1014.43 21.275 1013.66 20.333C1012.73 19.393 1011.49 18.922 1009.78 18.922C1008.08 18.922 1006.53 19.392 1005.29 20.176L1005.91 22.059H1006.07C1007 21.431 1008.23 21.118 1009.47 21.118C1010.4 21.118 1011.18 21.431 1011.64 21.902C1012.11 22.372 1012.42 23.157 1012.42 23.942V24.098C1009.78 24.098 1007.93 24.568 1006.53 25.353C1005.14 26.137 1004.52 27.393 1004.52 29.118C1004.52 30.216 1004.83 31.157 1005.6 31.784C1006.38 32.569 1007.31 32.882 1008.54 32.882C1010.25 32.882 1011.64 32.255 1012.57 31L1012.88 32.569H1015.36V32.412C1014.9 31.471 1014.9 30.372 1014.9 29.118ZM1028.52 28.804V12.96H1025.89V20.49C1025.58 20.019 1025.12 19.705 1024.5 19.391C1023.72 19.077 1022.95 18.764 1022.18 18.764C1020.47 18.764 1019.08 19.391 1017.99 20.803C1016.91 22.058 1016.29 23.94 1016.29 25.979C1016.29 27.862 1016.75 29.587 1017.84 30.842C1018.92 32.097 1020.32 32.724 1021.87 32.724C1022.8 32.724 1023.72 32.411 1024.5 31.94C1025.12 31.626 1025.58 30.999 1026.05 30.372L1026.2 32.254H1028.68V32.097C1028.68 31.47 1028.53 30.215 1028.53 28.803L1028.52 28.804ZM1036.11 26.764C1035.8 25.824 1032.4 19.078 1032.4 19.078H1029.46L1035.96 32.255L1042.47 19.078H1039.52C1039.68 19.078 1036.43 26.138 1036.12 26.765L1036.11 26.764ZM1043.86 19.078H1046.49V32.255H1043.86V19.078ZM1045.25 13.588C1044.79 13.588 1044.32 13.745 1044.01 14.058C1043.71 14.373 1043.55 14.843 1043.55 15.314C1043.55 15.784 1043.71 16.254 1044.01 16.569C1044.32 16.882 1044.79 17.039 1045.25 17.039C1045.72 17.039 1046.18 16.882 1046.49 16.569C1046.8 16.255 1046.96 15.784 1046.96 15.314C1046.96 14.844 1046.8 14.373 1046.49 14.059C1046.18 13.745 1045.72 13.589 1045.25 13.589L1045.25 13.588ZM1054.55 24.568C1053.62 24.255 1052.84 23.941 1052.53 23.628C1052.22 23.314 1052.07 23 1052.07 22.529C1052.07 22.059 1052.22 21.589 1052.53 21.275C1052.84 20.961 1053.46 20.804 1054.08 20.804C1055.01 20.804 1055.94 21.118 1056.87 21.588H1057.03L1057.65 19.549C1056.72 19.079 1055.63 18.765 1054.24 18.765C1052.84 18.765 1051.6 19.078 1050.83 19.863C1049.9 20.647 1049.59 21.588 1049.59 22.686C1049.59 24.412 1050.83 25.666 1053.15 26.451C1054.08 26.765 1054.7 27.078 1055.01 27.392C1055.32 27.706 1055.48 28.176 1055.48 28.647C1055.48 29.117 1055.32 29.588 1054.86 29.902C1054.39 30.216 1053.77 30.372 1053.15 30.372C1052.07 30.372 1050.99 30.059 1049.9 29.432H1049.75L1049.13 31.627H1049.28C1050.37 32.255 1051.76 32.569 1053.15 32.569C1054.7 32.569 1055.94 32.255 1056.87 31.471C1057.8 30.686 1058.27 29.745 1058.27 28.491C1058.27 27.549 1057.96 26.765 1057.49 26.137C1056.72 25.667 1055.79 25.039 1054.55 24.569V24.568ZM1065.86 18.765C1064 18.765 1062.45 19.392 1061.21 20.647C1059.97 21.902 1059.35 23.627 1059.35 25.824C1059.35 27.863 1059.97 29.431 1061.05 30.686C1062.29 31.941 1063.69 32.569 1065.55 32.569C1066.63 32.569 1067.87 32.255 1068.8 31.627C1069.73 31 1070.66 30.216 1071.12 29.117C1071.74 28.02 1071.9 26.765 1071.9 25.353C1071.9 23.313 1071.28 21.745 1070.19 20.49C1069.26 19.392 1067.71 18.765 1065.86 18.765ZM1080.42 18.765C1079.64 18.765 1078.87 19.078 1078.09 19.549C1077.47 20.019 1077.01 20.49 1076.7 21.275L1076.54 19.078H1074.38V32.254H1077.01V25.196C1077.01 23.941 1077.32 23 1077.94 22.216C1078.56 21.588 1079.33 21.118 1080.11 21.118H1081.03V18.45H1080.88C1080.88 18.764 1080.57 18.764 1080.42 18.764V18.765ZM1012.26 27.863C1012.26 28.647 1011.95 29.275 1011.33 29.745C1010.71 30.373 1009.94 30.529 1009.01 30.529C1008.39 30.529 1007.93 30.373 1007.46 29.902C1007.15 29.588 1006.84 28.961 1006.84 28.333C1006.84 27.549 1007.15 26.765 1007.93 26.294C1008.7 25.824 1010.09 25.51 1012.11 25.51V27.863H1012.26ZM1025.89 26.608C1025.89 27.706 1025.58 28.648 1024.96 29.275C1024.34 29.902 1023.57 30.215 1022.64 30.215C1021.56 30.215 1020.63 29.745 1020.01 28.961C1019.39 28.02 1019.08 26.921 1019.08 25.667C1019.08 24.255 1019.39 23.157 1020.01 22.216C1020.63 21.275 1021.56 20.961 1022.64 20.961C1023.57 20.961 1024.34 21.275 1024.96 21.902C1025.58 22.529 1025.89 23.471 1025.89 24.412V26.608H1025.89ZM999.251 29.118C998.631 29.902 997.701 30.373 996.617 30.373C995.687 30.373 994.913 30.059 994.294 29.431C993.674 28.804 993.364 27.863 993.364 26.921V24.882C993.364 24.569 993.519 23.942 993.674 23.314C993.829 22.686 994.294 22.216 994.914 21.745C995.444 21.3305 996.099 21.1093 996.772 21.118C997.856 21.118 998.631 21.588 999.405 22.373C1000.03 23.157 1000.34 24.255 1000.34 25.667C1000.34 27.078 1000.03 28.333 999.251 29.117V29.118ZM1068.33 29.275C1067.56 30.215 1066.78 30.686 1065.7 30.686C1064.62 30.686 1063.84 30.216 1063.07 29.275C1062.29 28.333 1061.98 27.235 1061.98 25.824C1061.98 24.412 1062.29 23.314 1063.07 22.373C1063.69 21.431 1064.62 20.961 1065.86 20.961C1066.94 20.961 1067.87 21.431 1068.49 22.373C1069.11 23.313 1069.42 24.412 1069.42 25.823C1069.42 27.078 1069.11 28.333 1068.33 29.275Z" fill="#B2B2B2"/>
<path fill-rule="evenodd" clip-rule="evenodd" d="M920.374 118.913C916.569 118.913 913.269 120.278 911.352 122.56V108H903V139.909H911.352V134.756C911.352 129.566 913.632 126.591 917.604 126.591C920.327 126.591 921.891 127.623 922.526 129.839C922.939 131.282 923.022 133.144 923.022 135.678V139.908H931.373V133.77C931.373 128.044 930.83 125.33 929.212 123.003C927.207 120.252 924.317 118.913 920.374 118.913ZM930.132 121.27C930.614 121.963 931.007 122.682 931.327 123.475V108.012H922.975V116.926C926.008 117.43 928.37 118.854 930.132 121.27ZM951.84 133.474H948.814V116.304H951.84V123.247H959.505V116.303H962.53V133.473H959.455L959.505 125.949H951.84V133.474ZM970.85 121.176C974.506 121.176 976.85 123.651 976.85 127.514C976.85 131.353 974.532 133.776 970.85 133.776C967.17 133.776 964.85 131.353 964.85 127.514C964.85 123.651 967.195 121.176 970.85 121.176ZM985.448 133.576C984.894 133.702 984.163 133.777 983.306 133.777C982.146 133.777 980.936 133.55 980.28 132.743C979.8 132.163 979.776 131.479 979.776 130.319V123.702H977.206V121.454H979.776V117.264L982.65 116.631V121.454H985.448V123.702H982.65V129.838C982.65 130.52 982.75 130.848 982.978 131.076C983.204 131.327 983.684 131.404 984.188 131.404C984.693 131.404 985.146 131.354 985.448 131.304V133.576ZM997.955 130.748C997.425 131.581 995.811 133.776 992.306 133.776C988.752 133.776 986.331 131.252 986.331 127.364C986.331 123.653 988.878 121.177 992.231 121.177C996.064 121.177 997.904 123.827 997.904 127.515C997.904 127.717 997.879 128.045 997.879 128.247H989.129C989.332 129.889 990.34 131.302 992.458 131.302C994.626 131.302 995.584 129.838 995.961 129.232L997.955 130.748ZM1000.12 133.475H1003V116.302H1000.12V133.474V133.475ZM1013.91 125.823C1013.49 124.536 1012.58 123.652 1011.12 123.652C1009.2 123.652 1007.99 125.066 1007.99 127.465C1007.99 129.864 1009.22 131.277 1011.12 131.277C1012.75 131.277 1013.56 130.319 1013.99 129.232L1016.31 130.47C1015.75 131.757 1014.12 133.777 1011.04 133.777C1007.56 133.777 1005.14 131.555 1005.14 127.515C1005.14 123.475 1007.74 121.177 1011.04 121.177C1013.84 121.177 1015.58 122.666 1016.31 124.562L1013.91 125.823ZM1028.66 133.475H1025.79V127.39C1025.79 126.48 1025.76 125.697 1025.59 125.093C1025.34 124.233 1024.71 123.703 1023.47 123.703C1021.68 123.703 1020.82 125.093 1020.82 127.035V133.475H1017.95V116.304H1020.82V122.994C1021.38 121.934 1022.74 121.15 1024.55 121.15C1025.92 121.15 1027.05 121.555 1027.86 122.64C1028.41 123.424 1028.66 124.333 1028.66 126.656V133.474L1028.66 133.475ZM1040.97 130.723C1040.97 131.481 1041.07 131.732 1041.75 131.732H1041.9V133.627C1041.75 133.65 1041.37 133.753 1040.54 133.753C1039.43 133.753 1038.65 133.448 1038.42 132.515H1038.4C1037.92 133.07 1036.96 133.803 1034.82 133.803C1032.5 133.803 1030.58 132.641 1030.58 130.015C1030.58 129.105 1030.83 128.425 1031.26 127.895C1031.99 127.01 1033.25 126.531 1034.82 126.253L1037.46 125.799C1038.09 125.672 1038.22 125.62 1038.22 125.167V124.965C1038.22 123.955 1037.56 123.451 1036.08 123.451C1034.46 123.451 1033.63 124.131 1033.65 125.545L1030.96 125.369C1030.91 122.414 1033.33 121.229 1036.2 121.229C1038.95 121.229 1040.97 122.111 1040.97 124.762V130.722V130.723ZM1054 123.02C1054.73 122.138 1055.94 121.152 1058.11 121.152C1059.65 121.152 1060.66 121.607 1061.29 122.314C1062.04 123.171 1062.35 124.004 1062.35 126.657V133.475H1059.47V127.386C1059.47 125.216 1059.32 123.701 1057.15 123.701C1055.36 123.701 1054.56 125.091 1054.56 127.034V133.473H1051.68V127.386C1051.68 125.216 1051.53 123.701 1049.36 123.701C1047.6 123.701 1046.77 125.091 1046.77 127.034V133.473H1043.89V121.453H1046.77V122.992C1047.35 121.984 1048.63 121.15 1050.52 121.15C1051.76 121.15 1052.79 121.528 1053.5 122.312C1053.7 122.538 1053.85 122.766 1054 123.018V123.02ZM1068.05 132.212V138.272H1065.17V121.454H1068.05V122.767C1068.7 121.907 1070.01 121.151 1071.58 121.151C1074.83 121.151 1076.9 123.778 1076.9 127.514C1076.9 131.125 1074.78 133.776 1071.58 133.776C1069.96 133.776 1068.8 133.146 1068.05 132.211V132.212ZM970.85 131.303C972.691 131.303 974.002 129.837 974.002 127.465C974.002 125.041 972.742 123.626 970.85 123.626C968.96 123.626 967.699 125.066 967.699 127.465C967.699 129.864 969.009 131.303 970.85 131.303ZM989.206 126.101H995.054C994.979 124.536 993.844 123.474 992.23 123.474C990.591 123.474 989.282 124.663 989.206 126.101ZM1038.22 129.206V127.743C1037.79 127.895 1037.44 127.996 1036.58 128.171L1035.47 128.399C1034.11 128.677 1033.51 129.03 1033.51 129.989C1033.51 130.974 1034.16 131.633 1035.57 131.633C1037.13 131.633 1038.22 130.848 1038.22 129.206ZM1070.97 131.277C1072.81 131.277 1074.02 129.837 1074.02 127.465C1074.02 125.041 1072.81 123.626 1070.97 123.626C1069.15 123.626 1067.92 125.141 1067.92 127.465C1067.92 129.788 1069.15 131.277 1070.97 131.277Z" fill="#B2B2B2"/>
<path fill-rule="evenodd" clip-rule="evenodd" d="M951.727 217.773H944V249.147H952.362C952.362 249.147 952.362 232.769 952.15 231.599C952.15 231.599 956.655 238.601 964.377 249.14H971.429V217.792H963.127C963.127 217.792 963.261 232.816 963.35 234.296C963.35 234.296 961.118 230.08 951.727 217.773Z" fill="#B2B2B2"/>
<path opacity="0.6" fill-rule="evenodd" clip-rule="evenodd" d="M992.168 205.312C987.715 205.312 984.105 208.939 984.105 213.414C984.105 217.889 987.715 221.516 992.168 221.516C996.622 221.516 1000.23 217.889 1000.23 213.414C1000.23 208.939 996.622 205.312 992.168 205.312ZM1008.62 213.444C1008.62 222.526 1001.3 229.888 992.258 229.888C983.219 229.888 975.892 222.526 975.892 213.444C975.892 204.362 983.219 197 992.258 197C1001.3 197 1008.62 204.362 1008.62 213.444Z" fill="#B2B2B2"/>
<path fill-rule="evenodd" clip-rule="evenodd" d="M1036.53 200.947L1032.31 207.823C1032.31 207.823 1028.74 204.833 1023.68 204.833C1020.11 204.833 1020.44 206.478 1020.44 206.717C1020.44 206.957 1020.12 208.287 1026.3 209.617C1032.44 210.94 1036.95 213.175 1036.89 219.782C1036.83 226.24 1031.95 229.709 1023.92 229.709C1015.88 229.709 1010.94 225.822 1010.94 225.822L1015.05 219.065C1015.05 219.065 1019.22 222.098 1024.45 222.175C1028.56 222.235 1028.32 220.38 1028.32 220.38C1028.32 218.826 1026.42 217.928 1020.76 216.733C1015.11 215.537 1011.72 212.607 1011.72 207.763C1011.72 202.591 1014.83 197.271 1024.05 197.254C1032.03 197.239 1036.53 200.947 1036.53 200.947Z" fill="#B2B2B2"/>
<path fill-rule="evenodd" clip-rule="evenodd" d="M54.266 231.796V216.066H64.364V218.86H57.83V223.018H63V225.702H57.83V231.796H54.266ZM66.542 231.796V215.076H69.71V231.796H66.542ZM72.702 231.796V220.29H75.87V231.796H72.702ZM74.264 218.728C73.751 218.728 73.322 218.563 72.977 218.233C72.632 217.903 72.46 217.489 72.46 216.99C72.46 216.492 72.632 216.077 72.977 215.747C73.322 215.417 73.751 215.252 74.264 215.252C74.777 215.252 75.21 215.417 75.562 215.747C75.914 216.077 76.09 216.492 76.09 216.99C76.09 217.489 75.914 217.903 75.562 218.233C75.21 218.563 74.777 218.728 74.264 218.728ZM82.998 232.016C81.781 232.016 80.857 231.708 80.226 231.092C79.596 230.476 79.28 229.574 79.28 228.386V222.556H77.806V220.29H79.28V217.804H82.448V220.29H84.868V222.556H82.448V228.1C82.448 229.01 82.873 229.464 83.724 229.464C84.179 229.464 84.582 229.391 84.934 229.244V231.708C84.3107 231.919 83.6561 232.023 82.998 232.016ZM91.511 232.038C89.956 232.038 88.746 231.708 87.881 231.048C87.015 230.388 86.553 229.435 86.495 228.188H89.465C89.538 228.731 89.729 229.138 90.037 229.409C90.345 229.681 90.829 229.816 91.489 229.816C92.691 229.816 93.293 229.398 93.293 228.562C93.293 228.181 93.117 227.888 92.765 227.682C92.413 227.477 91.811 227.316 90.961 227.198C89.406 226.964 88.31 226.582 87.671 226.054C87.034 225.526 86.715 224.712 86.715 223.612C86.715 222.468 87.158 221.585 88.045 220.962C88.933 220.338 90.007 220.026 91.269 220.026C94.173 220.026 95.757 221.214 96.021 223.59H93.095C92.919 222.666 92.317 222.204 91.291 222.204C90.777 222.204 90.378 222.314 90.091 222.534C89.806 222.754 89.663 223.04 89.663 223.392C89.663 223.759 89.82 224.03 90.136 224.206C90.451 224.382 91.034 224.529 91.885 224.646C93.439 224.866 94.572 225.233 95.284 225.746C95.994 226.26 96.351 227.096 96.351 228.254C96.351 229.486 95.929 230.425 95.086 231.07C94.242 231.716 93.051 232.038 91.511 232.038ZM98.375 231.796V220.29H101.565V222.05C101.873 221.464 102.335 220.98 102.951 220.598C103.567 220.217 104.278 220.026 105.085 220.026C106.683 220.026 107.754 220.694 108.297 222.028C109.191 220.694 110.482 220.026 112.169 220.026C113.298 220.026 114.211 220.393 114.908 221.126C115.604 221.86 115.953 222.96 115.953 224.426V231.796H112.785V224.778C112.785 223.356 112.183 222.644 110.981 222.644C110.335 222.644 109.804 222.85 109.386 223.26C108.968 223.671 108.759 224.25 108.759 224.998V231.796H105.591V224.778C105.591 223.356 104.989 222.644 103.787 222.644C103.141 222.644 102.61 222.85 102.192 223.26C101.774 223.671 101.565 224.25 101.565 224.998V231.796H98.375ZM123.983 232.038C122.208 232.038 120.763 231.514 119.649 230.465C118.534 229.417 117.977 227.99 117.977 226.186V226.01C117.977 224.221 118.537 222.776 119.66 221.676C120.782 220.576 122.193 220.026 123.895 220.026C125.508 220.026 126.846 220.518 127.91 221.5C128.973 222.483 129.505 223.942 129.505 225.878V226.758H121.211C121.255 227.712 121.526 228.452 122.025 228.98C122.523 229.508 123.205 229.772 124.071 229.772C125.449 229.772 126.249 229.237 126.469 228.166H129.483C129.292 229.413 128.72 230.37 127.767 231.037C126.813 231.705 125.552 232.038 123.983 232.038ZM121.255 224.8H126.403C126.3 223.084 125.463 222.226 123.895 222.226C123.175 222.226 122.585 222.45 122.124 222.897C121.662 223.345 121.372 223.979 121.254 224.8H121.255ZM131.683 231.796V220.29H134.851V231.796H131.683ZM133.245 218.728C132.731 218.728 132.302 218.563 131.958 218.233C131.613 217.903 131.441 217.489 131.441 216.99C131.441 216.492 131.613 216.077 131.958 215.747C132.302 215.417 132.731 215.252 133.245 215.252C133.758 215.252 134.191 215.417 134.543 215.747C134.895 216.077 135.071 216.492 135.071 216.99C135.071 217.489 134.895 217.903 134.543 218.233C134.191 218.563 133.758 218.728 133.245 218.728ZM141.957 232.038C140.402 232.038 139.192 231.708 138.327 231.048C137.461 230.388 136.999 229.435 136.941 228.188H139.911C139.984 228.731 140.175 229.138 140.483 229.409C140.791 229.681 141.275 229.816 141.935 229.816C143.137 229.816 143.739 229.398 143.739 228.562C143.739 228.181 143.563 227.888 143.211 227.682C142.859 227.477 142.257 227.316 141.407 227.198C139.852 226.964 138.756 226.582 138.117 226.054C137.48 225.526 137.161 224.712 137.161 223.612C137.161 222.468 137.604 221.585 138.491 220.962C139.379 220.338 140.453 220.026 141.715 220.026C144.619 220.026 146.203 221.214 146.467 223.59H143.541C143.365 222.666 142.763 222.204 141.737 222.204C141.223 222.204 140.824 222.314 140.537 222.534C140.252 222.754 140.109 223.04 140.109 223.392C140.109 223.759 140.266 224.03 140.582 224.206C140.897 224.382 141.48 224.529 142.331 224.646C143.885 224.866 145.018 225.233 145.73 225.746C146.44 226.26 146.797 227.096 146.797 228.254C146.797 229.486 146.375 230.425 145.532 231.07C144.688 231.716 143.497 232.038 141.957 232.038ZM153.023 232.016C151.805 232.016 150.881 231.708 150.251 231.092C149.62 230.476 149.305 229.574 149.305 228.386V222.556H147.831V220.29H149.305V217.804H152.473V220.29H154.893V222.556H152.473V228.1C152.473 229.01 152.898 229.464 153.749 229.464C154.163 229.472 154.574 229.397 154.959 229.244V231.708C154.336 231.919 153.681 232.023 153.023 232.016ZM162.417 232.038C160.642 232.038 159.197 231.514 158.083 230.465C156.968 229.417 156.411 227.99 156.411 226.186V226.01C156.411 224.221 156.971 222.776 158.094 221.676C159.216 220.576 160.627 220.026 162.329 220.026C163.942 220.026 165.28 220.518 166.344 221.5C167.407 222.483 167.939 223.942 167.939 225.878V226.758H159.645C159.689 227.712 159.96 228.452 160.459 228.98C160.957 229.508 161.639 229.772 162.505 229.772C163.883 229.772 164.683 229.237 164.903 228.166H167.917C167.726 229.413 167.154 230.37 166.201 231.037C165.247 231.705 163.986 232.038 162.417 232.038ZM159.689 224.8H164.837C164.734 223.084 163.897 222.226 162.329 222.226C161.609 222.226 161.019 222.45 160.558 222.897C160.096 223.345 159.806 223.979 159.688 224.8H159.689ZM170.029 231.796V220.29H173.219V222.49C173.952 220.921 175.191 220.129 176.937 220.114V223.084C175.705 223.07 174.777 223.294 174.154 223.755C173.53 224.217 173.219 224.976 173.219 226.032V231.796H170.029ZM27.064 204H11.599C7.41 204 5.13 204 2.578 206.6C0.0250001 209.2 0 211.475 0 215.7V231.3C0 235.525 0.0250001 237.8 2.578 240.4C5.13 243 7.41 243 11.598 243H27.064C31.252 243 33.828 243 36.085 240.4C38.343 237.8 38.663 235.525 38.663 231.3V215.7C38.663 211.475 38.643 209.2 36.085 206.6C33.527 204 31.262 204 27.064 204ZM13.854 223.3H10.407V220.91H15.176C15.8728 219.8 16.639 218.735 17.47 217.722H7.162V229.278H10.407V226.488H12.651C12.9653 225.395 13.368 224.329 13.855 223.301L13.854 223.3ZM26.131 217.722L24.038 223.889L22 217.722H18.723C16.96 220.584 16.492 225.573 16.492 229.278H19.737V221.585L22.462 229.278H25.612L28.275 221.585V229.278H31.5V217.722H26.13H26.131Z" fill="#B2B2B2"/>
<path fill-rule="evenodd" clip-rule="evenodd" d="M16.0949 4L17.8949 7.135C18.2549 7.785 18.2549 8.577 17.8949 9.225L7.16686 27.856L12.2429 36.649C12.6341 37.3252 13.1955 37.8872 13.8713 38.2791C14.547 38.6711 15.3137 38.8792 16.0949 38.883C17.6789 38.883 19.1549 38.018 19.9469 36.649L25.0229 27.856L23.6909 25.478L17.9309 35.46C17.5709 36.108 16.8509 36.505 16.1309 36.505C15.3749 36.505 14.6909 36.108 14.3309 35.46L9.90286 27.856L19.8749 10.559L21.6749 13.694C22.0349 14.343 22.0349 15.135 21.6749 15.784L14.7269 27.856L16.0949 30.235L23.6549 17.117L28.6229 25.73C28.9944 26.3835 29.1897 27.1223 29.1897 27.874C29.1897 28.6257 28.9944 29.3645 28.6229 30.018L23.5829 38.775C22.8269 40.108 20.4149 43.099 16.0949 43.099C11.7749 43.099 9.39886 40.109 8.60686 38.775L3.56686 30.018C3.19534 29.3645 3 28.6257 3 27.874C3 27.1223 3.19534 26.3835 3.56686 25.73L16.0949 4ZM39.5309 13.334H43.0229V33.982H39.5309V13.334ZM47.7029 17.117C48.1089 17.1172 48.5059 16.997 48.8436 16.7716C49.1813 16.5461 49.4446 16.2256 49.6002 15.8506C49.7558 15.4755 49.7966 15.0627 49.7176 14.6645C49.6386 14.2662 49.4432 13.9003 49.1563 13.613C48.8693 13.3258 48.5036 13.1301 48.1054 13.0506C47.7072 12.9712 47.2943 13.0117 46.9191 13.1669C46.5439 13.3221 46.2232 13.5851 45.9974 13.9226C45.7717 14.2601 45.6511 14.657 45.6509 15.063C45.6509 16.198 46.5699 17.117 47.7029 17.117ZM45.9389 19.64H49.4669V33.982H45.9389V19.64ZM58.7189 19.28C54.7229 19.28 51.4829 22.09 51.4829 26.559C51.4829 31.027 54.2909 33.766 58.7549 33.766C60.5189 33.766 62.3909 34.667 62.3909 36.649C62.3909 38.631 60.8069 39.749 58.7549 39.749C56.7029 39.749 55.0109 38.523 55.0109 36.649H51.4829C51.4829 40.505 54.5789 43.063 58.7549 43.063C62.8949 43.063 65.9189 40.613 65.9189 36.649C65.9189 34.811 65.3429 33.081 62.9669 31.892C65.3069 30.812 65.9909 28.325 65.9909 26.522C65.9909 22.09 62.7149 19.28 58.7189 19.28ZM76.2149 19.28C74.5949 19.28 73.0469 19.784 71.7509 21.406V13.298H68.2229V33.946H71.7509V26.667C71.7509 24.541 73.1909 22.775 75.2789 22.775C77.1509 22.775 78.5189 23.892 78.5189 26.487V33.947H82.0469V26.235C82.0829 22.018 80.2829 19.28 76.2149 19.28ZM90.6509 31.532C90.2189 31.532 89.8589 31.388 89.6429 31.099C89.4269 30.811 89.3189 30.379 89.3189 29.73V22.667H92.1629L92.4869 19.604H89.3549V15.676L85.7909 16.072V19.64H83.0909V22.703H85.7909V29.838C85.7909 31.316 86.1509 32.433 86.8349 33.19C87.5189 33.946 88.5629 34.343 89.8949 34.343C90.5069 34.343 91.0829 34.271 91.6949 34.09C92.2719 33.9265 92.8189 33.6712 93.3149 33.334L92.0909 31.064C91.6699 31.3633 91.1674 31.5267 90.6509 31.532ZM105.159 26.271C103.719 25.37 102.027 25.261 100.371 25.153C99.3989 25.081 97.9229 24.865 97.9229 23.603C97.9229 22.703 98.8589 22.199 100.551 22.199C101.919 22.199 103.107 22.523 104.115 23.459L106.095 21.153C104.439 19.712 102.747 19.28 100.479 19.28C97.8509 19.28 94.3949 20.433 94.3949 23.748C94.3949 25.118 95.1149 26.378 96.3029 27.099C97.6349 27.929 99.3629 28.036 100.839 28.217C101.847 28.325 103.503 28.577 103.215 29.982C103.035 30.955 101.847 31.244 101.019 31.28C100.119 31.316 99.2189 31.244 98.3189 31.027C97.3829 30.775 96.6269 30.343 95.7989 29.802L93.9989 32.072C94.1069 32.144 94.2149 32.252 94.2149 32.252C96.5189 34.162 99.7229 34.775 102.639 34.126C104.835 33.622 106.707 32.036 106.707 29.658C106.779 28.325 106.347 26.991 105.159 26.271ZM116.787 19.28C115.167 19.28 113.259 19.964 112.143 21.55L112.035 19.604H108.615V40.253L112.143 39.856V32.289C113.151 33.839 115.347 34.343 116.859 34.343C121.431 34.343 124.095 30.919 124.095 26.775C124.095 22.559 121.179 19.28 116.787 19.28ZM128.703 28.072C129.099 29.766 130.647 31.244 133.167 31.244C134.463 31.244 136.191 30.594 137.019 29.766L139.287 32C137.775 33.55 135.291 34.307 133.131 34.307C128.667 34.307 125.427 31.352 125.427 26.775C125.427 22.451 128.775 19.28 132.879 19.28C137.199 19.28 140.799 22.235 140.439 28.072H128.703ZM145.047 28.072C145.443 29.766 146.991 31.244 149.511 31.244C150.807 31.244 152.535 30.594 153.363 29.766L155.631 32C154.119 33.55 151.635 34.307 149.475 34.307C145.011 34.307 141.771 31.352 141.771 26.775C141.771 22.451 145.119 19.28 149.223 19.28C153.543 19.28 157.143 22.235 156.783 28.072H145.047ZM165.315 34.342C166.935 34.342 168.843 33.658 169.959 32.072L170.067 33.982H173.487V13.334H169.959V21.334C168.951 19.784 166.719 19.316 165.207 19.316C160.635 19.316 158.007 22.703 158.007 26.883C158.007 31.063 160.923 34.343 165.315 34.343V34.342ZM58.7549 30.847C56.7029 30.847 55.0109 29.081 55.0109 26.559C55.0109 24.072 56.7029 22.235 58.7549 22.235C60.8069 22.235 62.4629 24.108 62.4629 26.559C62.4629 29.045 60.7709 30.847 58.7549 30.847ZM116.499 31.28C114.087 31.28 112.467 29.081 112.467 26.847C112.467 24.613 113.979 22.235 116.499 22.235C119.055 22.235 120.531 24.649 120.531 26.847C120.567 29.081 118.911 31.28 116.499 31.28ZM137.019 25.37C136.623 23.676 134.931 22.199 132.879 22.199C130.971 22.199 129.207 23.496 128.703 25.369H137.019V25.37ZM153.399 25.37C153.003 23.676 151.311 22.199 149.259 22.199C147.351 22.199 145.587 23.496 145.083 25.369H153.399V25.37ZM165.567 22.343C167.979 22.343 169.599 24.541 169.599 26.775C169.599 29.009 168.087 31.388 165.567 31.388C163.011 31.388 161.535 28.973 161.535 26.775C161.535 24.541 163.155 22.343 165.567 22.343Z" fill="#B2B2B2"/>
</svg>
