<svg width="80" height="60" viewBox="0 0 80 60" fill="none" xmlns="http://www.w3.org/2000/svg">
<path fill-rule="evenodd" clip-rule="evenodd" d="M5 2H75C76.6569 2 78 3.34315 78 5V42H2V5C2 3.34315 3.34315 2 5 2ZM80 44V42V5C80 2.23858 77.7614 0 75 0H5C2.23858 0 0 2.23858 0 5V42V44V45C0 47.7614 2.23858 50 5 50H39V58H26C25.4477 58 25 58.4477 25 59C25 59.5523 25.4477 60 26 60H54C54.5523 60 55 59.5523 55 59C55 58.4477 54.5523 58 54 58H41V50H75C77.7614 50 80 47.7614 80 45V44ZM2 45V44H78V45C78 46.6569 76.6569 48 75 48H5C3.34315 48 2 46.6569 2 45ZM40 47C40.5523 47 41 46.5523 41 46C41 45.4477 40.5523 45 40 45C39.4477 45 39 45.4477 39 46C39 46.5523 39.4477 47 40 47Z" fill="#5528FF"/>
</svg>
