<svg width="41" height="60" viewBox="0 0 41 60" fill="none" xmlns="http://www.w3.org/2000/svg">
<path fill-rule="evenodd" clip-rule="evenodd" d="M5.97852 0C3.21709 0 0.978516 2.23858 0.978516 5V55C0.978516 57.7614 3.21709 60 5.97852 60H28.9074C30.2335 60 31.5053 59.4732 32.443 58.5355L39.514 51.4645C40.4517 50.5268 40.9785 49.255 40.9785 47.9289V5C40.9785 2.23858 38.7399 0 35.9785 0H5.97852ZM7.97852 58C5.21709 58 2.97852 55.7614 2.97852 53V7C2.97852 4.23858 5.21709 2 7.97852 2H33.9785C36.7399 2 38.9785 4.23858 38.9785 7V47.1005C38.9785 47.4047 38.9508 47.7061 38.8967 48.0012H29.9501C29.3978 48.0012 28.9501 48.4489 28.9501 49.0012L28.9501 57.9236C28.6645 57.9741 28.3731 58 28.079 58H7.97852ZM30.9724 57.0778C31.1998 56.9165 31.4148 56.7353 31.6146 56.5355L37.514 50.636C37.712 50.4381 37.8916 50.2253 38.0518 50.0003L31.9531 50.0011C31.3996 50.0012 30.9515 50.4508 30.9532 51.0042L30.9724 57.0778ZM17.9785 11C17.9785 10.4477 18.4262 10 18.9785 10H32.9785C33.5308 10 33.9785 10.4477 33.9785 11C33.9785 11.5523 33.5308 12 32.9785 12H18.9785C18.4262 12 17.9785 11.5523 17.9785 11ZM17.9785 19.0005C17.4262 19.0005 16.9785 19.4482 16.9785 20.0005C16.9785 20.5528 17.4262 21.0005 17.9785 21.0005H32.9785C33.5308 21.0005 33.9785 20.5528 33.9785 20.0005C33.9785 19.4482 33.5308 19.0005 32.9785 19.0005H17.9785ZM16.9785 30C16.9785 29.4477 17.4262 29 17.9785 29H32.9785C33.5308 29 33.9785 29.4477 33.9785 30C33.9785 30.5523 33.5308 31 32.9785 31H17.9785C17.4262 31 16.9785 30.5523 16.9785 30ZM17.9785 38.9985C17.4262 38.9985 16.9785 39.4463 16.9785 39.9985C16.9785 40.5508 17.4262 40.9985 17.9785 40.9985H32.9785C33.5308 40.9985 33.9785 40.5508 33.9785 39.9985C33.9785 39.4463 33.5308 38.9985 32.9785 38.9985H17.9785ZM10.1001 13.6801L10.1068 13.687C10.4973 14.0775 11.1305 14.0775 11.521 13.687L11.5211 13.6869L17.1779 8.0301C17.5684 7.63958 17.5684 7.00642 17.1779 6.61589C16.7874 6.22537 16.1542 6.22537 15.7637 6.61589L10.814 11.5656L8.69264 9.44428C8.30212 9.05376 7.66895 9.05376 7.27843 9.44428C6.8879 9.83481 6.8879 10.468 7.27843 10.8585L10.1001 13.6801ZM8.98553 18.0161H12.9855V22.0161H8.98553V18.0161ZM6.98553 18.0161C6.98553 16.9115 7.88097 16.0161 8.98553 16.0161H12.9855C14.0901 16.0161 14.9855 16.9115 14.9855 18.0161V22.0161C14.9855 23.1207 14.0901 24.0161 12.9855 24.0161H8.98553C7.88097 24.0161 6.98553 23.1207 6.98553 22.0161V18.0161ZM12.9855 28H8.98553V32H12.9855V28ZM8.98553 26C7.88097 26 6.98553 26.8954 6.98553 28V32C6.98553 33.1046 7.88097 34 8.98553 34H12.9855C14.0901 34 14.9855 33.1046 14.9855 32V28C14.9855 26.8954 14.0901 26 12.9855 26H8.98553ZM8.99335 37.9985H12.9933V41.9985H8.99335V37.9985ZM6.99335 37.9985C6.99335 36.894 7.88878 35.9985 8.99335 35.9985H12.9933C14.0979 35.9985 14.9933 36.894 14.9933 37.9985V41.9985C14.9933 43.1031 14.0979 43.9985 12.9933 43.9985H8.99335C7.88878 43.9985 6.99335 43.1031 6.99335 41.9985V37.9985ZM16.9785 50.0005C16.9785 49.4482 17.4262 49.0005 17.9785 49.0005H25.9785C26.5308 49.0005 26.9785 49.4482 26.9785 50.0005C26.9785 50.5528 26.5308 51.0005 25.9785 51.0005H17.9785C17.4262 51.0005 16.9785 50.5528 16.9785 50.0005ZM8.99335 48.0005H12.9933V52.0005H8.99335V48.0005ZM6.99335 48.0005C6.99335 46.8959 7.88878 46.0005 8.99335 46.0005H12.9933C14.0979 46.0005 14.9933 46.8959 14.9933 48.0005V52.0005C14.9933 53.1051 14.0979 54.0005 12.9933 54.0005H8.99335C7.88878 54.0005 6.99335 53.1051 6.99335 52.0005V48.0005Z" fill="#5528FF"/>
</svg>
